<mxfile host="app.diagrams.net" agent="Mozilla/5.0 (Windows NT 10.0; Win64; x64) AppleWebKit/537.36 (KHTML, like Gecko) Chrome/138.0.0.0 Safari/537.36" version="28.0.7">
  <diagram name="第 1 页" id="VQdnAhDaDk6zNIjXqNVn">
    <mxGraphModel dx="786" dy="451" grid="1" gridSize="10" guides="1" tooltips="1" connect="1" arrows="1" fold="1" page="1" pageScale="1" pageWidth="827" pageHeight="1169" math="0" shadow="0">
      <root>
        <mxCell id="0" />
        <mxCell id="1" parent="0" />
        <mxCell id="SMEs9AoR3NQrVsgJjgiB-1" value="" style="rounded=0;whiteSpace=wrap;html=1;" parent="1" vertex="1">
          <mxGeometry x="350" y="410" width="120" height="60" as="geometry" />
        </mxCell>
        <mxCell id="SMEs9AoR3NQrVsgJjgiB-2" value="" style="rounded=1;whiteSpace=wrap;html=1;" parent="1" vertex="1">
          <mxGeometry x="350" y="410" width="120" height="60" as="geometry" />
        </mxCell>
        <mxCell id="SWZiMY6fd4CFgNdvQyDk-4" value="" style="shape=image;verticalLabelPosition=bottom;labelBackgroundColor=default;verticalAlign=top;aspect=fixed;imageAspect=0;image=data:image/png,iVBORw0KGgoAAAANSUhEUgAAAVwAAAC0CAIAAABXFAMgAAAgAElEQVR4Ae1dO24cSRKl5kbiUeTJ1CFo0xfmEIQsuoJk8wQ6gDD2QI6ANoYGDRq9qImdx/i/6CYptahcDLTxe6+ioiqjM7Oqm2f7Q/63O+R/hxDvDyHeLWZdrhdZjd1u9/HL14vrG/nv45evH798vb27l5O9vbvXFdDyi6yGPil9slTWQCqD7YyG6gDAJoIGUnlCiBjKpgOAmggaSOUJIWIomw4AaiJoIJUnhIihbDoAqImggU6+vbs/v7w6e3MZ/3v17v355ZXuDvFYjq1XI7yx9FTO2/BEl8P2aoQ3lp7KecGzmgJKsQmuTL1qkEzpqZyXkRm/w/aqQTKlp3JeRmb8Dgt1t9u9evf+7M3lq3fv0/+kU7x69/7i+gbXS1ODaiJoIJUnhIihbDoAqImggVSeECIGbKspoBSbgAJNBINkyoQQMYzM+IGaCAbJlAkhYhiZ8QPlhL4joE3E1oAFhSPsVZMTU3oq52Vkxu+wvWqQTOmpnBdkqymgFJvgytSrBsmUnsp5GZnxO2yvGiRTeirnZWTG77CiXlzfYI6AYS9tQqtNa1hX0FT52Pt5NQVTxvRmrYwGyZSKJLUzMuNPGSqjQTKlIkntjMz4UwbZSpAucH55JSP89u5edhzRHdAUREC/+Pjla0rbGE1OTGl4oouRGX+ENxaDZErDE10gW00BpdiEWKnGYpBMaXiii5EZf4Q3FoNkSsMTXYzM+CP89u5eTxPitZDnEdiDTFvD+eVVZG4sJiemNDzRxciMP8Ibi0EypeGJLpCtpoBSbEKsVGMxSKY0PNHFyIw/whuLQTKl4YkuRmb8KVyagvyrAwSJ55Efv3xtWsP55RUiNUkqm5yYkjJURkZm/BVJajdIpqQMlRFkqymgFJtQ1Su1GyRTUobKyMiMvyJJ7QbJlJShMjIy448ku90OM4VX797rAIP87xpVrUFIhksJx9yrOiUq91TOS9l0gMP2qgZSGVSrKaAUm0ALpwMMkikaSGVGZvyUTQcYJFM0kMqMzPhTNjx6OHtzqUe1Qf6nCANag15NYJcBxvPLq/PLK3kPyl3l//j4/6c5V0ZOpyIqktSucFxMGSoj6FZTQCk2oapXajdIpqQMlZGRGX9FktoNkikpQ2VkZMafkriNRsQYpFX2+/3t3b08ttATDexBYntSOgX6hfSI/j0oe6jf6N5YTcFcetyIE8EgmTIhRAwjM36gJoJBMmVCiBhGZvxAaeHjl68Y2HqyYJBBkR2Ej1++YqKBCUIjoEfIe1CYmAT6B4NOlcoPsIFE2XTAgO8hRAOpDNhqCijFJtDC6QCDZIoGUpmRGT9l0wEGyRQNpDIjM/6KTU8WsLNgkIWy3+/RFzDgMS+YdAd5gVoSSw9S5ZzaU4bKmDJUxooktVckqR0MqymgFJuQFqsyGiRTKpLUzsiMP2WojAbJlIoktTMy408ZZGDrycLF9Y0sEAy4UPb77Wt1+BqV7COgHdBOIQF4exqvSOJoVc6pHaiJkDJUxgkhYiqS1A7UagooxSakxaqMBsmUiiS1MzLjTxkqo0EypSJJ7YzM+FMGMbr3GqUvGHCt9A8j0TKw0YCWAUFakhxUugyO1uQcXUBNhAhvLBNCxDQ80QXUGaSJEIkay4QQMQ1PdAE1ESK8sUwIEdPwRBdQEyHCG8uEEDENT3QBNREivLFUhDIOsYiQ0YsFf0MIV2SWz/zbu3u0DPceFOYm0hpkyoBXKhvmeCxYgJoIQE2ECSFiJoSIAWo1BZRiE1CgiWCQTJkQIoaRGT9QE8EgmTIhRAwjM36goqB3B7B3iPFsWDIlEkYL2Ha73cX1TTpxwGoCB4k8jQWoidDwRNeEEDER3liAWk0BpdiEpmTRZZBMifDGwsiMv+GJLoNkSoQ3FkZm/A2PLOLck4j5+8s9s/NKTvJQEw0ISwmxYMoQdxkcm1bN2TJFA6nMyIyfsukAIFdTQCk2QdeIygbJFMqmAxiZ8WsglQ2SKZRNBzAy49fAVN7v9+nmgmHJlJStMmqC6n0HN2WoqJxdM1PZYXuVsumAnsp5AVxNAaXYBFemXjVIpvRUzsvIjN9he9UgmdJTOS8jM36HTdX9fo/NBRmZk53glKoympz+VXa7nRxUbzS4XYaKTdsjc2PRQCo3PNFF2XQA4KspoBSboGtEZYNkCmXTAYzM+DWQygbJFMqmAxiZ8WtgJcvlwKz+7M3lZBFRsaV2k9O/imw34JUHt5R49e697HrSpURkbixpbpWx4YmuiiS1A76aAkqxCWmxKqNBMqUiSe2MzPhThspokEypSFI7IzP+lCEaqzcXDJdVhARbieKsxrCFGk3/VCRaw3wpYbiYEk+8sTAy4294ogvI1RRQik2IlWosBsmUhie6GJnxR3hjMUimNDzRxciMP8Iri95cmCwidrud/C7L+eWVDOaL6xvpEfEQJqdMqaYM2H2MnGLJyEpbRZLaS5bMkTJURhCspoBSbEJVr9RukExJGSojIzP+iiS1GyRTUobKyMiMvyKJdhnPehGBN4sM438KGATSbwf8B+r+H7sMmC8gGdnjwBG10DEGnwZSOaA7A2XTASBaTQGl2ARdIyobJFMomw5gZMavgVQ2SKZQNh3AyIxfA6msFxEyyN3qQFMLm1xKjF7sR7hjaWAvxy9iyk6kbDE42smGqD5chDcWDaRywxNdYFtNAaXYhFipxmKQTGl4oouRGX+ENxaDZErDE12MzPgjvLEIUj+JaCYL4IkvQcUBbHJqFVmSSEvClEHUSLuaQllLXJ6JULJkjgkhYjKC0gbURChZMseEEDEZQWkDaiKULJljQoiYjKC0ATURhAWvM8lHdEWtCd1+RPwaRUVS2eMWg/QFYdbbmRVDatc5UzllqIyUTQeAZM0UUIpN0DWiskEyhbLpAEZm/BpIZYNkCmXTAYzM+DWQykDqj2j5fIYLgmaTb1hic+GRTQE7CJiz6HxcX0A+E0HnTOUJIWIomw4AajUFlGITdI2obJBMoWw6gJEZvwZS2SCZQtl0ACMzfg2kMpAYjWdvLmUQwgXBsWGycPbmEqMaMUBNBEHJTYJMqr4wIUQM8pkIQE2ECSFiQLiaAkqxCSjQRDBIpkwIEcPIjB+oiWCQTJkQIoaRGT9QEwFIvPjcrCAcoUzp0UScF8wTAViZgDR94ZffU5iUAzGoy0QAaiJMCBEzIUQMUBMBqIkwIUTMhBAxQE0EoCbChBAxE0LEADURgJoIQqifQciKYL7DN1lr0LRjqq4vNPuOPXlkbiw9lfM2PNEF7PqRFZRiE2KlGotBMqXhiS5GZvwR3lgMkikNT3QxMuOP8MYCpPs2RNwj+PFX8En6QnPu0YVqTIQIbywgXE0BpdiEpmTRZZBMifDGwsiMv+GJLoNkSoQ3FkZm/A1PdAGJDQKZKchXIeAVIcIbi8P2asUT+wK+ItETwlsxp3agJkLKUBlBuJoCSrEJVb1Su0EyJWWojIzM+CuS1G6QTEkZKiMjM/6KJLUDiQ0C2d57qr1D8PdCmpsY074gt1PPKd6GObomhIiJ8MYC1GoKKMUmNCWLLoNkSoQ3FkZm/A1PdBkkUyK8sTAy4294oksj6QoiwhuLZqZyw6OzQsOSP2CnX16oDtEzO29FktodtlfBsJoCSrEJfdWc1yCZ4rC9ysiMv6dyXoNkisP2KiMz/p7KeTWSriActlc1M5UpFd6qRl9wLy9Uh+iZnbciSe0O26tgWE0BpdiEvmrOa5BMcdheZWTG31M5r0EyxWF7lZEZf0/lvBopj4312wHuGYTD9qpmpnJPhYcj+HUW/bJjT06ZdUBP5bwaSGVgV1NAKTaBFk4HGCRTNJDKjMz4KZsOMEimaCCVGZnxUzYdYJD/XiOs4eMLCBpIZcfcq5QNfUH3rMmm44QZMX2SzgvURAB2NQWUYhMmtUOMQTIFqInAyIx/QogYg2QKUBOBkRn/hBAxBvnvNXLfg5DfUJAwoCaCY+7VCaFe3WAR8erde51hPMqQWcIivLEcx7yaginpcUU0FIWymHVhHlmN27t7LODdZOGRzDpJJ8+ZMZFBX0hfqQD/nPnHvHS7mgIuzSac2uUxyRXKb5iz/kCWNbz8rZcTuYK73Q49C33B7X3oi3lqV3A1BX11VlP4NaqB7UbpCHqycCIDDF/TQFOQRUT6UX8iOePar6aAUmzCqV0ek1yh/J45x8nCoZcvHZ9FjQ++N6o3F9KDntoVXE3B3AandnlMcoXye+ZcTRZOpBouPcwX0kXEieSM+2s1BZRiE07t8pjkCuW3zdk9Ajx7c1l9G7IqUVHR3FyRpHa5l6pFhHvNMWWojHlyhbUiSe3gWL+nYOqDukwEg2TKhBAxjMz4gZoIBsmUCSFiGJnxAzURDDIo2OqX/YX0o7g6SiDrDBVJagcR0sNkIf48TMpQGcE8ESqS1A7C1RRQik1Ii1UZDZIpFUlqZ2TGnzJURoNkSkWS2hmZ8acMldEgg7Lb7eTdQWz4z/tCIOsMVXqpHUSSnnQEyRDf49IxKUlqBGoipAyVEYSrKaAUm1DVK7UbJFNShsrIyIy/IkntBsmUlKEyMjLjr0hSu0Fmip6ly3xBZu8pmzZmZKVNA6msWXR60hfcZIGy6QDNTGUNpDLYVlNAKTaBFk4HGCRTNJDKjMz4KZsOMEimaCCVGZnxUzYdYJCFogeefkKpeaJckOXmCG8smkK/apVOFhqe6NLMVI7wxgK21RRQik1oShZdBsmUCG8sjMz4G57oMkimRHhjYWTG3/BEl0HWCvpC9adfjmaWY0Z4Y3FpIrd0Z6HhiS7H3KsR3lhAtZoCSrEJTcmiyyCZEuGNhZEZf8MTXQbJlAhvLIzM+Bue6DLIWtFfiEh/lOloZjlmhDeWmCa2PCAgpuGJLqAmQoQ3FhCupoBSbEJTsugySKZEeGNhZMbf8ESXQTIlwhsLIzP+hie6DLJWsM9/assHSTlOFvAANZ5yY6kLkHganugCfjUFlGITYqUai0EypeGJLkZm/BHeWAySKQ1PdDEy44/wxmKQhaI3+fHCQsMproIsN1M2HZBSYI4ggkxnTvCuW03BXD59XalskEyhbDqAkRm/BlLZIJlC2XQAIzN+DaSyQRYKPofx9MG9IJQepSDLzSlDZUwpMJfBzsLwKYk+SspcGTWQyiBZTQGl2ARaOB1gkEzRQCozMuOnbDrAIJmigVRmZMZP2XSAQRaKbgr995QPZcYBNZDKQGkBux5oCvNUcURNSGWgJgLYVlNAKTZhUjvEGCRTgJoIjMz4J4SIMUimADURGJnxTwgRY5CFgpn5fO3wU95qR54Q5O9N4WSpUBQgN1M2HQCK1RRQik3QNaKyQTKFsukARmb8Gkhlg2QKZdMBjMz4NZDKBpkpt3f3+A71q3fv59cxIyttNE8dULFgRoPJwvz9S+GvmFO7TonKYFhNAaXYBFo4HWCQTNFAKjMy46dsOsAgmaKBVGZkxk/ZdIBBZgqm5fPnDsKfkZU2nRKVKxb0LzQF2W6c7ID8sJxXUzCXj15sHWCQTNFAKjMy46dsOsAgmaKBVGZkxk/ZdIBBZgo28PC1Ag1v5IystDU80VWy7PePnCw0zNEVE2ssgK+mgFJsQlOy6DJIpkR4Y2Fkxt/wRJdBMiXCGwsjM/6GJ7oMMlNkfS4riIMuYkZW2mJijaVikRmBpOomCw2bdlXMqV0DqQyG9XsKplaoy0QwSKZMCBHDyIwfqIlgkEyZECKGkRk/UBPBIK0iLQAbCnjyP6E9qH084a5k+qNMc35bAKIN6yBh4FpNAaXYhOOKaCgKZTHrwjxVNW7v7uOGwpxcp0TlOW3fbtxvw8g0Z97OaJ464LicV1PQNVxN4RerhvulRrw4PBwM5myZMuSUsJ7sMZOFntl5j8t5NQVTxuOKaCgKZTHrwjxVNfTowi7jnFynROU5bT9TkAkpJjjYWXA/slAdjuapAyqS1A7gagooxSakxaqMBsmUiiS1MzLjTxkqo0EypSJJ7YzM+FOGymiQVtFNAb+hXvFEuyUjWoQ3FsL1752GhyZ4ken27r7hFBdl1gGUTQcAuJoCSrEJukZUNkimUDYdwMiMXwOpbJBMoWw6gJEZvwZS2SCtst/vMaJ+uaZw3GTBFoBotLY6AFyrKaAUm6BrRGWDZApl0wGMzPg1kMoGyRTKpgMYmfFrIJUNUinyeA/Tb3mXkbLpAEXGRQ2kMqc7drIwYUYMzVMHALWaAkqxCbpGVDZIplA2HcDIjF8DqWyQTKFsOoCRGb8GUtkglaKbgrQGSuUCFBkXHbZXOd1upx+doLXRnYUJM2L6JJ0XqNUUUIpNcGXqVYNkSk/lvIzM+B22Vw2SKT2V8zIy43fYXjXIoGA4zWcKF9c3p/D1RPn7l3r5g/evmoKEAnSGhie6QLSaAkqxCbFSjcUgmdLwRBcjM/4IbywGyZSGJ7oYmfFHeGMxSKUcN1PASp4+I1CH2sQmw+hy2ErVj1TR3frJQkWV2mNijQUMqymgFJvQlCy6DJIpEd5YGJnxNzzRZZBMifDGwsiMv+GJLoMMCsbSq3fv6e49flj57M2lBAe+0hATaywli3VIY4qTheZELAHRmgyjC1yrKaAUmxAr1VgMkikNT3QxMuOP8MZikExpeKKLkRl/hDcWg1RKnH7TK4ingId+n5Iyu/xVmkQ8dLJA6KzbZdWrgK6mgFJsQl815zVIpjhsrzIy4++pnNcgmeKwvcrIjL+ncl6DtMpBjyT11xNl9S5txVKWmsuqV0uW4JDJgvuKVLM/Egg6Q5+k84JoNQWUYhNcmXrVIJnSUzkvIzN+h+1Vg2RKT+W8jMz4HbZXDdIq+uWl/o1GLBxkuSEz9oN+4KRP0nltmkTTZ4HVULWzQLis22XVq4CupoBSbEJfNec1SKY4bK8yMuPvqZzXIJnisL3KyIy/p3Jeg7SKHk74ITYHF1VPEzDw5GtIlrLUUtrKWLJkjoMmCxlBaavSS+1gWb+nYOqDukwEg2TKhBAxjMz4gZoIBsmUCSFiGJnxAzURDDIoGO3NNoFbZejJwvyTYJIqYkKanUFywH4Helb63LQjCj7kMxGAXk0BpdiESe0QY5BMAWoiMDLjnxAixiCZAtREYGTGPyFEjEEGBY8Yq78WFz+HdVOoZunhOM97b6Tfp8aL2yjFvIVJ/hpIZZzyagooxSbQwukAg2SKBlKZkRk/ZdMBBskUDaQyIzN+yqYDDDIo+DMwePNHY3fZi4O6KfQ7EfpojrZXNZDKQqWXQpgs4HcW5KWM1RTKYvbXw3lLlszhsL2aEZS2nsp5S5bM4bC9mhGUtp7KeUuWzOGwvZoRGBue82OEa8L4zO/Vu/eYq2PRYRgzRXNSOSMobcImn0k4F90XPn75emg7kIPRPHUA8lszBZRiE3SNqGyQTKFsOoCRGb8GUtkgmULZdAAjM34NpLJBZkq/reA+gWWVgfmFDMLJkKN56oAszdIGYNq/zt5cyiTo4vpmkqc+DJgnAoCrKaAUmzCpHWIMkilATQRGZvwTQsQYJFOAmgiMzPgnhIgxyEzptxXcw0hsPRw6WUA+EyFLs7SBUF5kRGJY5kjnOqI1gHkiIL/VFFCKTZjUDjEGyRSgJgIjM/4JIWIMkilATQRGZvwTQsQYZKFg1o0HkwKP34/AekG3Eqw7CvrNjHwmQsMTXZoQCWOCEFuD9LXJb89pZiojsdUUUIpNoIXTAQbJFA2kMiMzfsqmAwySKRpIZUZm/JRNBxhkoeDTFWNeGOSauvcFMZw0Clt6xRF+3L0hf0ju4voGEwSdP/YaJq1Bl5HKOPHVFFCKTaCF0wEGyRQNpDIjM37KpgMMkikaSGVGZvyUTQcYZKFgj0DGj6y95V/MCDCc0BSAkuEHe3oQnRKVU4bKGNnwhaiPX7423UFmE+eXV1XmkbmxIL3VFFCKTWhKFl0GyZQIbyyMzPgbnugySKZEeGNhZMbf8ESXQdaK/tjHaz/p8395TiktQ6P6yUJMrLHUaSaeCU/THaQ1pC9cNMzRhcxWU0ApNiFWqrEYJFManuhiZMYf4Y3FIJnS8EQXIzP+CG8sBlkrekaAnYV0Px/HcosLjYrHAWoiRHhjOYjQdQdMf2SK5KYME2bEIMPVFFCKTUCBJoJBMmVCiBhGZvxATQSDZMqEEDGMzPiBmggG2Sr6Y//Vu/cyQvDAUtYI+vsOQoYAGVfVESapIqYiSe1ATQQwfPzyVc4XOw5xyjAhRAyYV1NAKTYBBZoIBsmUCSFiGJnxAzURDJIpE0LEMDLjB2oiGGSr6KePWG+73fvYFPSLDNinjMeZpIqYCG8sQE0Ex+NaA84auyoTTokB82oKKMUmzCsoRTfgVlnMujzPVw29iNDtANNsmT64YbDb7fRDzfTiPl/Oj2eWyY6eMmCihPej6VFwgVZTQCk2gRZOBxgkUzSQyozM+CmbDjBIpmgglRmZ8VM2HWCQA8WNELQGGTPYZXQjX7oJPmnjcXRKVI7wxkLZdEDFs9vtsHrCs8yL65v5r86Bef2egi74+j2FF1IN9AVpBDLU4z6iPltsSUownl8gBmNmIgA1ESaEiKkI8XaD5I+Z0fnlFR5wgiQVwLyaAkqxCWmxKqNBMqUiSe2MzPhThspokEypSFI7IzP+lKEyGiRTQCKfnPjMPL+8itdXk8nIQTeJX1sG80TQzFSeECKmYZNT+PjlK5ZCENxTCbBpAcyrKaAUm6BrRGWDZApl0wGMzPg1kMoGyRTKpgMYmfFrIJUNkimRrbmsjsz1BdmSxJo8MjcWx9yrDU909VRyslhK6IkS7QtgXk0BpdiEeA0ai0EypeGJLkZm/BHeWAySKQ1PdDEy44/wxmKQTGl4oisl0+sIvYiI8MaSMlfGhie6KhJtF5SeMug1UeQUCxhWU0ApNqGqV2o3SKakDJWRkRl/RZLaDZIpKUNlZGTGX5GkdoNkSspQGVMyN1/A04qKJLWnzJUxZaiMFUm0x10GfEM0JQfDagooxSakxaqMBsmUiiS1MzLjTxkqo0EypSJJ7YzM+FOGymiQTKlIUntFhsU5Hlik8MZYMaf2hie6UobKKHA3Zaje5gbJagooxSbEa9BYDJIpDU90MTLjj/DGYpBMaXiii5EZf4Q3FoNkSsMTXT2ZfG9CfqYpYntLz+y8PZXzOmyvaiweWFYvaIFqNQWUYhN0EalskEyhbDqAkRm/BlLZIJlC2XQAIzN+DaSyQTKFsukARrbdD7Jpl37dSFM5mTLrAIftVQ2Mco89v7zC45i47wi21RRQik3oa+q8BskUh+1VRmb8PZXzGiRTHLZXGZnx91TOa5BMcdheZWSbX1bm55dXB/WFCTNi+iSdFygRZKUjMbvd7uOXr/KNKfnL2ueXV/jv4vpGmgL6grvhwbyaAkqxCe4C9KpBMqWncl5GZvwO26sGyZSeynkZmfE7bK8aJFN6KudlZP/3Y8du3heGzBLmsupVgaAXSCPAgMdrWpUQ3+/E4ZDzagooxSagQBPBIJkyIUQMIzN+oCaCQTJlQogYRmb8QE0Eg2TKhBAxjMz45VFlnHWDTQsGyRQNHMrSC/RyQL/IiJEfBTQL2SvR9zzSXE0BpdiE4SWRMINkymLWFfp1qyHTcpq/PlkqUzYdIF+LxBIgDntYMP4hiOvi+iZtbchzNQWUYhN09alskEyhbDqAkRm/BlLZIJlC2XQAIzN+DaSyQTKFsukARmb8AMq6HWoqGCRTUobUeHt3388I9PiX3QRpAfKXI7DoSMmR5moKKMUmpMWqjAbJlIoktTMy408ZKqNBMqUiSe2MzPhThspokEypSFI7IzP+lKEyGiRTKpLUjieLmBFg1iBvVUgXOPRm1l8RXk3BXLH0MlRGg2RKRZLaGZnxpwyV0SCZUpGkdkZm/ClDZTRIplQkqZ2RGX/KUBkNkikVSWqPPxiBn3VGI7i9u5evbKQMlRFprt9TMCVCXSaCQTJlQogYRmb8QE0Eg2TKhBAxjMz4gZoIBsmUCSFiGJnxAzURDJIpE0KJkfm/TA30TIG+pDg5BNJcTQGl2IRJ7RBjkEwBaiIwMuOfECLGIJkC1ERgZMY/IUSMQTIFqInAyIx/QogYg2QKUBMh/j619Ij0cemEEDFIczUFlGITUKCJYJBMmRAihpEZP1ATwSCZMiFEDCMzfqAmgkEyZUKIGEZm/EBNBINkyoQQMUImv/uAyYLsL8a+ANREQJqkKcjK5JFLlIMSQmaNEAklQ3z1XQc0PNGlgVSO8MZC2XRAwxNdGkjlCG8slE0HNDzRpYFUjvDGQtl0QMMTXRpI5QhvLJRNB4An7jjK5gJ2Fo7+kEuagn5uoYeZtiOzRtBnQuWGJ7qETeej+XW8jtH2StY8VK5IUjtl0wEpQ2XUQCpXJKkdrXYipAyVkeapAyqS1K5/ghF3bxSEP2WojDolkZuyVCSpPTI3Fs2Q9gX9faeGJ7rA/NAUMH7ci5N6V0PeANetCERRiEdtLBHeWCRV/VKXTlJe1ZIHMziphk27mgyjSwOpHOGNhbLpgIYHLty+GkhlwCcCZdMBlBAJH3oFNZDKOiUq65zRZbRRy5RNB2gglTXw9u4+9gUZC/pvyVFOCQDz/5uCvN2tf0Me70jIw085El6NSH/xDqQiDFNxCTmSVL29u8dXxJGn7gvI89W79xfXN8MudvR0K03SGZ+vGg0zRsVut/vnr0/fP7/9/vnttw+v//7zjx/237cPr10pmjq7hCXnJ0/424fXUop//voUc6ssqPPt3f0/f32iBfxhd53+XUm3y4BxSruYznZrCnKRpOWgBYA9FSQsfVkSNUURJwJQE2GeKrpD3INJDzRJFTEpQ2UEaiJUJKk9JcTo+uevT08+qOh4cAEx7ZizJCzN6wcnLD1Cj4qYsG5kp9YU8LsPcfCKBTd/LLu24KzPpIXoj9m0C0SjjLemLzGNO1wAABRsSURBVOjjURkJUSGdL8X0nEUvtJpD0Dx1QMMTXRpI5QhvLJFNBtjk08yN3udQ6UwB7eD757fPkcCc89uH101rQJ1PsCnIKE4/LGWcYsqAs4gC7rHtjUb3eMMNp0aVPlSt+uJRGwsS6oVnShUHbTKMLqAmQoQ3lgkhYhyP3LI/+MO2H3hIFQJylo7w09uBzv/757fIUws650nDbfqLptVzEByiERzWqelSArsMWBak/KDaZgpHTBPQKZqfgkwPXBmRUCPsdjtpezj6QcJkslCll9qbVKMrZaiMEd5YNMnwQ0yPgeeWm5mCfL6dVP+SaqRTBtR5WOSf0hSarQC95Me5aAH32LanEJcihw629Pz18aiMhBrh6GmCnE7Tv3BQmqcOAGoiaCCVJ4SIAdvwZn3uLhD5kSoEeXB4e3d/gh0B+SNbEQ6tczooHKdjxiEaIWWIRv3QAMO57wsgOYvfrwDFUKg+gZsTiy4kVAmPnNFgBlXxiz0m1lh6KudteKLLYXtV4DIPP80xFvOXpnBSqwb0AghujoPLNGy+P7cpSM1ja9BbgTgjEXCZnqYpvHr3HowQ3CF7FahKeOQ0AUukil/sfZLO21M5r8P2qsP2qlAN71Tc8X//+QeezMnzuef7N+YvCwedzFD+9uH1I/8bHkjC9DNLXLJhqU+hKUjlXWuo+gIu06gp0AGZThZQxImAhCoBo7qZv9A80+aljzhJFTEaSGWgJgJl0wFCOJyKf/vwWt/omifKMvsY/hvhjeX27v6gacL3z2+HadNs8crGpDvoyQIu3C/UFCRnuRD6b8ml6whcr1FT2O12/ZiUY8j1QO1wjIkAVBQmz0ekK/VLISQZDwHLJFXEADURgJoIE0LEgHByl2MxD3gjgHkiNDzRtd/vJ9nKdOafvz5hqEcqZ5mkKjG73W6SA96b1szDpw8yIXIZRlUzUznCG0tk063BfUaChzQFGUjDYSnvLIA6JtRYgIrCfr+n7yacvbmcJPnq3fv+OjUZRldMtbFEeGNpeKJLeCa3uIyuyFBZmgyjqyKJ9oPWDvKubSSpLDGxxnJQ0TTPr9sU5AUCmVO7rXeUlDQFmSDIcw5pENXsHQcAtS4ilYFyQvrtcZcDDt0vH172TGFym55OU5hk+/eff8iSwd0SvUrvNB0wWcV8//xWupgGTvKfV1szU7k/fedt2PBFAfxAC7CjpiDdZfJxrScLTULRhYScMJwmyHH7piCt5KXOFCa3KWbCrsiVGi9TY6lIon24Jv/7zz9kry4yNJYmw+iaZHJ0U5hXOybWWJpzj66GR1wyqKUvYGgc0BT6FbvMKeQta0mOJqQD4vnIDTE5KFpd3xRe9kxhMhOe36ZPdQXTyzoZirLalzskJamM+qai8mQh87KbAhbdeuQe0BToh7Y86sCdRy+JDkivMT2idCJ8/6JvCr/QTAH7alGIhZIyvsiZgpxaPOXGom8qKgtPv9344puCfOf47M0lRu5hTWHyuY2WQy+JDoiXWTYy3PaBU7EPKlR9U+hnCnHdqNNL5ZhzY0kZnBEtoOGJLiFZTUEq40raq886UzjxPQVXGfljFlLDw5rC8LVCubndUXs1vdf7Qa4XLEJO45unD5hHub4DFduZOJGYc2MBqhHwLTeZc8V/0/yFcDUFKX5T3ugSyG8+U5CyYENh+97D5MNffw+SDryzN5eYz8fLUFnccJIUZdhjWDrBTRMmozodVLiZcGrCrI8u47N6ruuST9XqxLUdCbgzFRXn6/iFYe0p4Drqkvbys84UMBt31yuqfZLOG+GNxWF7FTyHNQWM1fSuxb2Lnb8+Ce1FQiLQER6nCRPIsCmkZ/fDZgrp0eV8pbCxVvv9fjJTmE9ocRX0Nepll1Wjns5GoyS5ZgpyZXHJDmsK8kSg/0CT2/fQyQISkv663+/1B3U6TmRrRN+pfWL9ngLtKT+gKdD8m6YwmSlgz0xXu5F1banc8DjX6TSFZ50pzFswra0OcMXsVQ2kMqiOaQr029Zx/MwTOuJJJMj7QSWdRe4DnD+EU2gK/ZsgqCpyFkFO//buvv/EE6/cqVURUmaUtxcctlFPpylIkn3d0En16U/mZb/L8kGKOHlSKBN1Xcde1vfQhD9OEyaj+sSXD31T65vCfr8ffm8afQEPOyqhv2TOq69gL59OU3jWmcJv1xQm25P4uUh396QqbqOD3mt2VP2getkzheG2gnwqypem//nr0xH/yZVylT/oN8VOpynIuayZglxNjMGDlw+4J+hc1+3Vx9tIW5DQcJqQ7ln0TeFl7ylIMQ/6PnI/GKgXnUVWfDLdwHVshNNpCs86U3jhewqYCOlhPJksyNBt7g+4wHx7d48ngtX+orQbtzCmywdhw4GiQHuK2+eLDI0FZ1oJtBti+eCOAkIZlj+yL6BxSIPQj65dkk6drMnluw9zTjkEqjERZIKDs0gF/I4rCIdNTXqlO/FUBfNESBkq44QQMSAZzRTSpkAfEOAmxlEbAQn1I1M/iXRstCngOT+O5YT+0PF0HLxXXbZRfXxTkMs0+eZfevc/iVG25fpSzFc6ckaUTQfEwjaW1RR0cVDGRzWFJ5wsIKH+SaQMbDQpd0r9qH7xMwWphswXfu7fgKG/krRmCrjhD9qOmc8+hF8PECojpUc1hSecLEhCky6D71a4k1wzBV2Qn94aMOvGraaF1RR0NfSFo7IGUpmy6QCwPbYp0A9nPDvUh4+yJNRPE8Qri8yUgSbT73328F9i+aDLIn1Bdl5+ysSh6QurKWAEvsCZwmRfsPps13fw8ElkQ7VmCrqeWkZ3QIPAH5uVvzcr24Tpv+6nkw/dd6jWEaspvOSmMByK6S6AvnHpNptME2RNpYGQaSa/yZ4CChKFQ3fydTeBLK82DF+U+vvPP/TdD3k1BZTiBc4U5JToQ8TmEx7jnJLge1bxdhcSOv//rZYPVZX07djLjkEmGugOw2ef6WRhNQVdeVfnXtVAKvdUzgu2x+4pCBF9kck94Y/Z9AwyTcALSw4u6poppGVxRlz4ieCwWpXWMOkLqynQUuvCUpmy6QDKpgMAfJqmMHlqUL3INJxrYJpQTbdoU/gd3lPQ1ziVceEnQsoA4/AdntUUaKlR0olA2XTAhBAxAD5NU6A7AnHrXqfST/vdNOHoprD2FJ72KbesJujW42oKGGyVgLEwESqS1D4hRAwYnqwpTCYL2D5AHnJjybCXQRv/jZ/wgGthzRR0NSoZF34iVCRiP82mgC0PCM1ZyAdM39fwYBU8wynSvAWDeSJMLhxiIiHKAgExQD1ZU5i8yBS3G+lIln4hQCSN09DChGptNKKGE0GXt5L7EYU/6OIO9/iNRvmTkJNvecrdn+b/WzUF1AEPpP/56xNejdct7CmbQr8KkA98/WxSspxME9yztOoCTxJwd6dWKdxtl2osldOctXG+BHPH0iRUdthe7dl+7kxh8ktT0rDw+xHxdH6fpiAXq3qQLCXCzfCUTYH+1jP+OLVcnoNeWELGa09Bl6KqRhwAqLmDN2pFou0/a6YgaVd3uctKvqYlA0Mn/5s0Bb3ewRfe3fsmWCXt9/tRU8AHtS5olOkEPu4OTJ5Exp2I6j6mH/Uv+5eXqrJoe7xqjUUDU3nycY2fM8OB9D3qRq9T5aAAOkFmmpPHon//+Ye+6XEuk8kO8gdq+C1PPSl2mTtVM1PZYXtV2LBYSzd9cRHROp+yKUh+MvLjfqFY9A/AT/Ym3YxdDlEVrm8KkkD8uBDO27v7Ho4HKDh6fz2cF6hG6FskEjiCGQd12F4FqhJwP7nBrNX4WyPzpiA3cZPkI/vCJJOjm0I88epEqvKm9ooktcvf7JbLIR+u+tLoXil2yfmJm8JBC+N+DOgnke6E02IN5ylVU5jA9bsSzzFvH3alYTXSKjlsr6YM2oiPIHeraTWOjcnnszDIx3uf5EF94duH1zr/yW9PpE3huG5YnYhOicoVSWrf7/cyk0Il//7zD1lByNdepM56GbV9m2nycT1cPkgrGhJOvkmVThP0NqmrYD+o+pnCpCm4hxfpZaiMLtVU7bvkCc4UJkv6tCkMf3saP75UVVXs0hcmHUqGBIp/0NgGSgTd+CpZEuuTb+5nd0RRKZsO2O/3GPYY+XoRIS1DcpCr+c9fn564KQg7vbkvrm/oAMZCQ5+kyGmxhqO6mSlM2pl+OBoTayxVztre1+Rpm4Krg1NlPaxzi/KkI1SjGjdrNZy0XdpKP8AO6gvyNa1JR5BHqlIcV4HJ6X/78BrP/Jr8HXOvNveYc0naug/KKeumIGchwxZziqdvCvgjttW2wtxe1bGqWj+o+pmCFLR/Pire88urQ7t7lbC2zzc13LXXJFSWkg7/Tdl2u91wb09ux9hu9C2oB38jf//8VreGJv/dbjcZrs2xnAv5u2oMJyaybtdvBMTkHXOvRriz4PbAjgk2WdEH5Rvxcqbwyhl9//z2WZoCfTZJ+4J7eInzFKGqWt8UZAcU19hxyp1KJwvSF+RD+/zySqY8k38/fvl6cX0T/9VGOsNK11NSDbmi7ucPGlVGLAKcKuMK3qOHWVw74AriBnWDsFexHv7++W3139HZxkNjQyH9GDjuQLqqTyvreY3MUDDO5SaRmksN5WT1rAHBT98UpHz9+OybQnzNyQ3g45rCZKZAN0qRefyT0E9iAX8U+uWDXNF4W/9Eix5R6RWczzh+1lnox4rxrjuurz3ruegu3C8f9G6CnJpYnmVPQZrCbrejU/F434ulnyakPVvOqu9EdKYAZvnE7p+tVsk/n/3XagrfPryWaa1rB5gp6BvxWcfJ0eR6gOHecK3h1HpxzFlOX54VSBfD7EBcOCOZ+DxXU5AK9kO0GjyYJjTP/HAaTpgcsVk+6AsvVCfVF36hpiBzhKbU+sKd5nzBjS59b+jkhy8yHd2YDgW6tNNHkmgKWC/os3j6R5L4WJDO1C+S075ApwnN5embwnymIFd9t9thynAK3eFXaQpyXzYdIV7Bk/q8/f75rV414JZ2vcCpJ9LaYlPAgx7pBd8+vEZTkJYhj0ik+wj8WfYUMEU8dBGB+/6gWwqXp28K0oMOZd7tdhfXN9hflI2DtJ09txHFwW2KOutOf+hnyxPGT9qBzhkXTl68O4Vx1ZyCzjaVD3ou84Rl11RpU0DP1e0ApwAv9oD+3xT6TbL5y0v6fpWj6s/batjg6PIWQD9u4+cMTg9zfhA6ofnuQ3OzCr88ODi/vHINwh3ikWpVIjkoffqg748fJuvnhfoGaGRcsij8lF+jR63wZkFMPqZaWeS7ycc9m0AmxwkY2O5+xsjHI1KXpF7xbU3h1bv355dXzX8Yh7FSjUWX7OOXr3oq7kaOJCC/10Y7ApLR/CLLR3p1InKUJuGG2R1Lkvz45at0isc8ksRDSpSo6guTmcLkEReePk6ElFCeBcqzd1RmcuFQfKAawd21hw4SyRyPLYVtSHLE8sGdCDZZ5cuIkoYuZiy+9vZyxIrFPZKM93M6F8OCAlfwzJ1Mr+KiToRIJe81YSDJoNKpT2h1fDwEteDM02NROALkqkN9EqHfgumbwjAB96JLrw45JSytZ2U8iBkDrGLT9p5Zf2D2DcLNww+96ySlvrzw9jk7L1CVQKuhf59GkwN4BmkiaAoqR0IsQzRWzk1bqByZGwtl0wENT3RpIJUj3FnoKxJoCu5YjqdXHbZXeyrn7amc12F71WF7Nf2QF3650w7qC/pYfZLOq4FUdthepWw6IKVy3QQxAP7QpoDDRwEJTYQIbywTQsQ0PNEF1ESIcGdZTcEVBOqkvIgBqhJkqthPE+DVO3MVYWpHPhMhZaiME0LEVCSpHajVFFCKTUiLVRkNkikVCeyrKaAUTmClNX6HTVXpC8ONQPSFlKoympyYUpGkdkZm/ClDZQRyNQWUYhOqeqV2g2RKygDj5LWOtXxgNT7gCh7UF+QrQ/1uFC6lCJNUEeOwvQrUROipnBeEqymgFJvgytSrBskUSkW/i4XXutyhembnddheddhe7amct6dyXoftVYdtVGnE6YY8lg8Q9BO7hhOuPknnBWoiOGyvTggRA6rVFFCKTdDbVPhkqASDZEpk1tuu8mC4f28SPzDhDoWLOhEctlcnhIjpqZwXqIngsL06IUSMUA37QvMKAwgh9Ek6L1ATwWF7dUKIGFCtpoBSbIIMXRmuk38NmCl4ziLMcjEurm/wBkf1hgK+Wqb7CI6GizoRgJoIE0LETAgRA9REAGoiTAgRA0J5iwEvNaSCfOMY2F4A80ToqZx3QogYh+1VoFZTQCn28nHdjMwnd+ElLspcrR1+4pLH3WEPdRxIDturA76HkJ7KeR9gA0l6umOo1AHfQ0hFktofYAMpZaiM4FtNAaXYmoKMUjpEf3BAtcUoqVfXOLU/nO1AShkq44DvIaQiSe0PsIGUMlTGAd9DSEWS2h9gAyllqIwDvoeQiiS1A7aaAkrx/6bwgwc8PZxsNDRv1KUXuDI+nO1AqkhS+4DvISRlqIwPsIFUkaT2Ad9DSMpQGR9gA6kiSe0DvoeQlKEyAraaAkpxck1Bpi3nl1fpVgLyrq5xagdqIqQMlXFCiJiKJLUDNRFShso4IURMRZLagZoIKUNlnBAipiJJ7UCtpoBSnFBTwCpG/3j0Q6JWSi9wZbRQolUkqZ1wWXfKUBktlGgVSWonXNadMlRGCyVaRZLaCZd1pwyVEdDVFFCKn98U9L7jxfVNP0FA3tU1Tu1ATYSUoTJOCBFTkaR2oCZCylAZJ4SIqUhSO1ATIWWojBNCxFQkqR2o1RRQioemIMv4H/AvugDeUJAfd37IaSClF7gyDvgeQiqS1P4AG0gpQ2Uc8D2EVCSp/QE2kFKGyjjgewipSFL7A2wgpQyVEXyrKaAUW1OgPy1R/VjD0Xb5LYaPX742W4kPKWZSdY1Te0ZQ2lKGyliyZI6KJLVnBKUtZaiMJUvmqEhSe0ZQ2lKGyliyZI6KJLWD4H+Ofu/PnS4EuAAAAABJRU5ErkJggg==;" vertex="1" parent="1">
          <mxGeometry x="130" y="160" width="128" height="66.21" as="geometry" />
        </mxCell>
      </root>
    </mxGraphModel>
  </diagram>
</mxfile>
